<?xml version="1.0" encoding="utf-8"?>
<svg id="master-artboard" xmlns="http://www.w3.org/2000/svg" viewBox="0 0 500 500" width="500px" height="500px"><rect id="ee-background" x="0" y="0" width="500" height="500" style="fill: white; fill-opacity: 0; pointer-events: none;"/><g transform="matrix(0.9765625, 0, 0, 0.9765625, -0.000002881030013668351, -0.000002881030013668351)"><path d="M 150.82388244628908 46.713871002197266 C 146.13424384670535 42.00792057019727 140.44690880222046 45.10141117078321 135.75727020263673 49.8073616027832 L 61.63679473876954 120.85105377197266 L 26.562866668701176 89.83730072021484 C 21.873228069117438 85.13135028821485 13.865822757908937 80.87781787854688 9.1761841583252 85.58376831054687 L 3.5300000000000002 92.41 C -1.1759504305831694 97.09963859934437 -1.1759504305831712 104.72036140065562 3.5300000000000002 109.41 L 51.120000000000005 156.81 C 56.05338445049639 161.49953441976 63.79661554950362 161.49953441976 68.73 156.81 L 84.32000000000001 141.19 L 156.52 69 C 161.20160887706683 64.31466024757445 161.24173836435466 56.7346457098346 156.61 52 L 150.82388244628908 46.713871002197266 Z M 147.73037658691408 205.51719421386719 C 143.04073798733035 200.81124378186718 128.07300743503296 214.7319285963203 123.38336883544923 219.4378790283203 L 58.930000000000014 281.9978295898437 L 25.016125183105487 251.77742248535154 C 20.32648658352175 247.07147205335153 15.025877918431412 241.65785205823434 10.336239318847674 246.36380249023435 L 3.5300000000000002 252 C -1.1759504305831694 256.68963859934433 -1.1759504305831712 264.3103614006556 3.5300000000000002 269 L 51 316.5 C 55.9300280357668 321.18826050329335 63.66997196423319 321.18826050329335 68.6 316.5 L 84.3 300.81 L 156.5 228.59 C 161.164449899459 223.9366392583803 161.20462432144524 216.39277592791072 156.59 211.69 L 147.73037658691408 205.51719421386719 Z M 64.38668441772461 394.6812744140625 C 44.857906341552734 394.4320983886719 31.281330108642578 411.50067138671875 31.6507751083374 428.7606201171875 C 32.02022171020508 446.02056884765625 48.74284220500344 460.86504386831785 63.22663497924805 460.51983642578125 C 87.40863418579102 459.9434814453125 98.06670949284539 438.6962219513266 97.83551195367454 430.2818298339844 C 97.6089973449707 422.0377197265625 94.29611621858234 395.0629016366547 64.38668441772461 394.6812744140625 Z M 497.5467224121094 400.62744140625 L 205.29319763183594 399.0807189941406 C 196.45664163454325 399.0807189941406 191.61331176757812 405.08412881716043 191.61331176757812 413.9206848144531 L 192 432 C 192 440.8365559972927 199.1634440027073 448 208 448 L 496 448 C 504.8365559972927 448 512 440.8365559972927 512 432 L 511.6133117675781 413.9206848144531 C 511.6133117675781 405.08412881716043 506.38327840940207 400.62744140625 497.5467224121094 400.62744140625 Z M 495.22662353515625 78.69404220581055 L 206.83993530273438 80.24077987670898 C 198.00337930544168 80.24077987670898 191.22662353515625 88.56427713259012 191.22662353515625 97.40083312988281 L 192 112 C 192 120.83655599729269 199.1634440027073 128 208 128 L 496 128 C 504.8365559972927 128 512 120.83655599729269 512 112 L 511.61334228515625 93.92066955566406 C 511.61334228515625 85.08411355837137 504.06317953244894 78.69404220581055 495.22662353515625 78.69404220581055 Z M 496.77337646484375 240.2407684326172 L 206.83993530273438 239.85409545898438 C 198.00337930544168 239.85409545898438 192.38668823242188 246.63086648805887 192.38668823242188 255.46742248535156 L 192 272 C 192 280.8365559972927 199.1634440027073 288 208 288 L 496 288 C 504.8365559972927 288 512 280.8365559972927 512 272 L 512 251.21388244628906 C 512 242.37732644899637 505.60993246213644 240.2407684326172 496.77337646484375 240.2407684326172 Z" style="fill-opacity: 1; stroke-opacity: 1; stroke: rgb(51, 36, 99); stroke-width: 0; fill: rgb(62, 64, 64);" transform="matrix(0.9999999999999999, 0, 0, 0.9999999999999999, 1.6940658945086007e-21, -8.071903145889792e-9)"/></g></svg>